<svg width="142" height="75" viewBox="0 0 142 75" fill="none" xmlns="http://www.w3.org/2000/svg">
<rect width="141" height="65" fill="#FCFEFD"/>
<path d="M10.2661 15.3447H4.88281L3.93945 17.5391C3.70703 18.0791 3.59082 18.4824 3.59082 18.749C3.59082 18.9609 3.68994 19.1489 3.88818 19.313C4.09326 19.4702 4.53076 19.5728 5.20068 19.6206V20H0.822266V19.6206C1.40332 19.5181 1.7793 19.3848 1.9502 19.2207C2.29883 18.8926 2.68506 18.2261 3.10889 17.2212L8 5.77783H8.35889L13.1987 17.3442C13.5884 18.2739 13.9404 18.8789 14.2549 19.1592C14.5762 19.4326 15.0205 19.5864 15.5879 19.6206V20H10.1021V19.6206C10.6558 19.5933 11.0283 19.501 11.2197 19.3438C11.418 19.1865 11.5171 18.9951 11.5171 18.7695C11.5171 18.4688 11.3804 17.9937 11.1069 17.3442L10.2661 15.3447ZM9.979 14.5859L7.62061 8.9668L5.20068 14.5859H9.979ZM27.8721 16.1548L28.2104 16.2266L27.021 20H16.2544V19.6206H16.7773C17.3652 19.6206 17.7856 19.4292 18.0386 19.0464C18.1821 18.8276 18.2539 18.3218 18.2539 17.5288V8.55664C18.2539 7.68848 18.1582 7.14502 17.9668 6.92627C17.7002 6.62549 17.3037 6.4751 16.7773 6.4751H16.2544V6.0957H22.5503V6.4751C21.812 6.46826 21.2925 6.53662 20.9917 6.68018C20.6978 6.82373 20.4961 7.00488 20.3867 7.22363C20.2773 7.44238 20.2227 7.96533 20.2227 8.79248V17.5288C20.2227 18.0962 20.2773 18.4858 20.3867 18.6978C20.4688 18.8413 20.5952 18.9473 20.7661 19.0156C20.937 19.084 21.4702 19.1182 22.3657 19.1182H23.3809C24.4473 19.1182 25.1958 19.0396 25.6265 18.8823C26.0571 18.7251 26.4502 18.4482 26.8057 18.0518C27.1611 17.6484 27.5166 17.0161 27.8721 16.1548ZM38.2798 15.3447H32.8965L31.9531 17.5391C31.7207 18.0791 31.6045 18.4824 31.6045 18.749C31.6045 18.9609 31.7036 19.1489 31.9019 19.313C32.1069 19.4702 32.5444 19.5728 33.2144 19.6206V20H28.8359V19.6206C29.417 19.5181 29.793 19.3848 29.9639 19.2207C30.3125 18.8926 30.6987 18.2261 31.1226 17.2212L36.0137 5.77783H36.3726L41.2124 17.3442C41.6021 18.2739 41.9541 18.8789 42.2686 19.1592C42.5898 19.4326 43.0342 19.5864 43.6016 19.6206V20H38.1157V19.6206C38.6694 19.5933 39.042 19.501 39.2334 19.3438C39.4316 19.1865 39.5308 18.9951 39.5308 18.7695C39.5308 18.4688 39.394 17.9937 39.1206 17.3442L38.2798 15.3447ZM37.9927 14.5859L35.6343 8.9668L33.2144 14.5859H37.9927ZM44.2065 20V19.6206H44.7295C45.3174 19.6206 45.7344 19.4326 45.9805 19.0566C46.1309 18.8311 46.2061 18.3252 46.2061 17.5391V8.55664C46.2061 7.68848 46.1104 7.14502 45.9189 6.92627C45.6523 6.62549 45.2559 6.4751 44.7295 6.4751H44.2065V6.0957H49.8667C51.9448 6.0957 53.5239 6.33154 54.604 6.80322C55.6909 7.2749 56.5625 8.06104 57.2188 9.16162C57.8818 10.2622 58.2134 11.5337 58.2134 12.9761C58.2134 14.9106 57.6255 16.5273 56.4497 17.8262C55.1304 19.2754 53.1206 20 50.4204 20H44.2065ZM48.1748 18.9951C49.043 19.1865 49.771 19.2822 50.3589 19.2822C51.9448 19.2822 53.2607 18.7251 54.3066 17.6108C55.3525 16.4966 55.8755 14.9858 55.8755 13.0786C55.8755 11.1577 55.3525 9.64355 54.3066 8.53613C53.2607 7.42871 51.9175 6.875 50.2769 6.875C49.6616 6.875 48.9609 6.97412 48.1748 7.17236V18.9951ZM65.5039 19.6206V20H59.5464V19.6206H60.0386C60.6128 19.6206 61.0298 19.4531 61.2896 19.1182C61.4536 18.8994 61.5356 18.373 61.5356 17.5391V8.55664C61.5356 7.85254 61.4912 7.3877 61.4023 7.16211C61.334 6.99121 61.1938 6.84424 60.9819 6.72119C60.6812 6.55713 60.3667 6.4751 60.0386 6.4751H59.5464V6.0957H65.5039V6.4751H65.0015C64.4341 6.4751 64.0205 6.64258 63.7607 6.97754C63.5898 7.19629 63.5044 7.72266 63.5044 8.55664V17.5391C63.5044 18.2432 63.5488 18.708 63.6377 18.9336C63.7061 19.1045 63.8496 19.2515 64.0684 19.3745C64.3623 19.5386 64.6733 19.6206 65.0015 19.6206H65.5039ZM65.7397 6.0957H69.5132L78.0137 16.5239V8.50537C78.0137 7.65088 77.918 7.11768 77.7266 6.90576C77.4736 6.61865 77.0737 6.4751 76.5269 6.4751H76.0449V6.0957H80.8848V6.4751H80.3926C79.8047 6.4751 79.3877 6.65283 79.1416 7.0083C78.9912 7.22705 78.916 7.72607 78.916 8.50537V20.2256H78.5469L69.3799 9.02832V17.5903C69.3799 18.4448 69.4722 18.978 69.6567 19.1899C69.9165 19.4771 70.3164 19.6206 70.8564 19.6206H71.3486V20H66.5088V19.6206H66.9907C67.5854 19.6206 68.0059 19.4429 68.252 19.0874C68.4023 18.8687 68.4775 18.3696 68.4775 17.5903V7.9209C68.0742 7.44922 67.7666 7.13818 67.5547 6.98779C67.3496 6.8374 67.0454 6.69727 66.6421 6.56738C66.4438 6.50586 66.1431 6.4751 65.7397 6.4751V6.0957ZM95.0352 20L89.6621 8.30029V17.5903C89.6621 18.4448 89.7544 18.978 89.939 19.1899C90.1919 19.4771 90.5918 19.6206 91.1387 19.6206H91.6309V20H86.791V19.6206H87.2832C87.8711 19.6206 88.2881 19.4429 88.5342 19.0874C88.6846 18.8687 88.7598 18.3696 88.7598 17.5903V8.50537C88.7598 7.89014 88.6914 7.4458 88.5547 7.17236C88.459 6.97412 88.2812 6.81006 88.0215 6.68018C87.7686 6.54346 87.3584 6.4751 86.791 6.4751V6.0957H90.7285L95.7734 16.9751L100.736 6.0957H104.674V6.4751H104.192C103.597 6.4751 103.177 6.65283 102.931 7.0083C102.78 7.22705 102.705 7.72607 102.705 8.50537V17.5903C102.705 18.4448 102.801 18.978 102.992 19.1899C103.245 19.4771 103.645 19.6206 104.192 19.6206H104.674V20H98.7676V19.6206H99.2598C99.8545 19.6206 100.271 19.4429 100.511 19.0874C100.661 18.8687 100.736 18.3696 100.736 17.5903V8.30029L95.3735 20H95.0352ZM109.514 6.85449V12.3506H112.569C113.362 12.3506 113.892 12.231 114.159 11.9917C114.514 11.6772 114.712 11.1235 114.753 10.3306H115.133V15.1704H114.753C114.658 14.4937 114.562 14.0596 114.466 13.8682C114.343 13.6289 114.142 13.4409 113.861 13.3042C113.581 13.1675 113.15 13.0991 112.569 13.0991H109.514V17.6826C109.514 18.2979 109.541 18.6738 109.596 18.8105C109.65 18.9404 109.746 19.0464 109.883 19.1284C110.02 19.2036 110.279 19.2412 110.662 19.2412H113.021C113.807 19.2412 114.377 19.1865 114.733 19.0771C115.088 18.9678 115.43 18.7524 115.758 18.4312C116.182 18.0073 116.616 17.3682 117.061 16.5137H117.471L116.271 20H105.556V19.6206H106.048C106.376 19.6206 106.687 19.542 106.981 19.3848C107.2 19.2754 107.347 19.1113 107.422 18.8926C107.504 18.6738 107.545 18.2261 107.545 17.5493V8.51562C107.545 7.63379 107.456 7.09033 107.278 6.88525C107.032 6.61182 106.622 6.4751 106.048 6.4751H105.556V6.0957H116.271L116.425 9.14111H116.025C115.881 8.40967 115.721 7.90723 115.543 7.63379C115.372 7.36035 115.116 7.15186 114.774 7.0083C114.5 6.90576 114.019 6.85449 113.328 6.85449H109.514ZM127.591 5.77783V10.5869H127.212C127.089 9.66406 126.867 8.9292 126.545 8.38232C126.231 7.83545 125.78 7.40137 125.192 7.08008C124.604 6.75879 123.996 6.59814 123.367 6.59814C122.656 6.59814 122.068 6.81689 121.603 7.25439C121.138 7.68506 120.906 8.17725 120.906 8.73096C120.906 9.15479 121.053 9.54102 121.347 9.88965C121.771 10.4023 122.779 11.0859 124.372 11.9404C125.67 12.6377 126.556 13.1743 127.027 13.5503C127.506 13.9194 127.872 14.3569 128.125 14.8628C128.384 15.3687 128.514 15.8984 128.514 16.4521C128.514 17.5049 128.104 18.4141 127.284 19.1797C126.47 19.9385 125.421 20.3179 124.136 20.3179C123.732 20.3179 123.353 20.2871 122.998 20.2256C122.786 20.1914 122.345 20.0684 121.675 19.8564C121.012 19.6377 120.591 19.5283 120.414 19.5283C120.243 19.5283 120.106 19.5796 120.003 19.6821C119.908 19.7847 119.836 19.9966 119.788 20.3179H119.409V15.5498H119.788C119.966 16.5479 120.205 17.2964 120.506 17.7954C120.807 18.2876 121.265 18.6978 121.88 19.0259C122.502 19.354 123.182 19.5181 123.92 19.5181C124.775 19.5181 125.448 19.2925 125.94 18.8413C126.439 18.3901 126.689 17.8569 126.689 17.2417C126.689 16.8999 126.593 16.5547 126.402 16.2061C126.217 15.8574 125.927 15.5327 125.53 15.2319C125.264 15.0269 124.536 14.5928 123.346 13.9297C122.157 13.2598 121.309 12.7266 120.803 12.3301C120.304 11.9336 119.925 11.4961 119.665 11.0176C119.405 10.5391 119.275 10.0127 119.275 9.43848C119.275 8.44043 119.658 7.58252 120.424 6.86475C121.189 6.14014 122.164 5.77783 123.346 5.77783C124.084 5.77783 124.867 5.95898 125.694 6.32129C126.077 6.49219 126.347 6.57764 126.504 6.57764C126.682 6.57764 126.826 6.52637 126.935 6.42383C127.051 6.31445 127.144 6.09912 127.212 5.77783H127.591ZM139.281 5.77783V10.5869H138.901C138.778 9.66406 138.556 8.9292 138.235 8.38232C137.92 7.83545 137.469 7.40137 136.881 7.08008C136.293 6.75879 135.685 6.59814 135.056 6.59814C134.345 6.59814 133.757 6.81689 133.292 7.25439C132.828 7.68506 132.595 8.17725 132.595 8.73096C132.595 9.15479 132.742 9.54102 133.036 9.88965C133.46 10.4023 134.468 11.0859 136.061 11.9404C137.36 12.6377 138.245 13.1743 138.717 13.5503C139.195 13.9194 139.561 14.3569 139.814 14.8628C140.074 15.3687 140.204 15.8984 140.204 16.4521C140.204 17.5049 139.793 18.4141 138.973 19.1797C138.16 19.9385 137.11 20.3179 135.825 20.3179C135.422 20.3179 135.042 20.2871 134.687 20.2256C134.475 20.1914 134.034 20.0684 133.364 19.8564C132.701 19.6377 132.281 19.5283 132.103 19.5283C131.932 19.5283 131.795 19.5796 131.693 19.6821C131.597 19.7847 131.525 19.9966 131.478 20.3179H131.098V15.5498H131.478C131.655 16.5479 131.895 17.2964 132.195 17.7954C132.496 18.2876 132.954 18.6978 133.569 19.0259C134.191 19.354 134.872 19.5181 135.61 19.5181C136.464 19.5181 137.138 19.2925 137.63 18.8413C138.129 18.3901 138.378 17.8569 138.378 17.2417C138.378 16.8999 138.283 16.5547 138.091 16.2061C137.907 15.8574 137.616 15.5327 137.22 15.2319C136.953 15.0269 136.225 14.5928 135.036 13.9297C133.846 13.2598 132.999 12.7266 132.493 12.3301C131.994 11.9336 131.614 11.4961 131.354 11.0176C131.095 10.5391 130.965 10.0127 130.965 9.43848C130.965 8.44043 131.348 7.58252 132.113 6.86475C132.879 6.14014 133.853 5.77783 135.036 5.77783C135.774 5.77783 136.557 5.95898 137.384 6.32129C137.767 6.49219 138.037 6.57764 138.194 6.57764C138.372 6.57764 138.515 6.52637 138.625 6.42383C138.741 6.31445 138.833 6.09912 138.901 5.77783H139.281ZM10.4766 40.3175H15.2241V40.9925H10.4766V40.3175ZM9.05908 29.9225H19.1841L20.3316 28.505C20.3316 28.505 20.3991 28.5575 20.5341 28.6625C20.6691 28.7675 20.8491 28.91 21.0741 29.09C21.2991 29.255 21.5241 29.4425 21.7491 29.6525C21.9891 29.8475 22.2066 30.035 22.4016 30.215C22.3716 30.335 22.3041 30.425 22.1991 30.485C22.1091 30.545 21.9816 30.575 21.8166 30.575H9.23908L9.05908 29.9225ZM18.5541 29.9225H19.9941V46.4375C19.9941 46.8275 19.9341 47.18 19.8141 47.495C19.6941 47.825 19.4391 48.095 19.0491 48.305C18.6741 48.53 18.0891 48.68 17.2941 48.755C17.2791 48.515 17.2116 48.305 17.0916 48.125C16.9866 47.945 16.8516 47.795 16.6866 47.675C16.4466 47.525 16.1241 47.3975 15.7191 47.2925C15.3291 47.1875 14.8041 47.105 14.1441 47.045V46.685C14.1441 46.685 14.3016 46.7 14.6166 46.73C14.9466 46.745 15.3291 46.775 15.7641 46.82C16.2141 46.85 16.6416 46.88 17.0466 46.91C17.4516 46.925 17.7291 46.9325 17.8791 46.9325C18.1341 46.9325 18.3066 46.8875 18.3966 46.7975C18.5016 46.7075 18.5541 46.5575 18.5541 46.3475V29.9225ZM14.5491 34.2425H14.3241L15.1116 33.3875L16.8216 34.715C16.7616 34.805 16.6491 34.895 16.4841 34.985C16.3191 35.06 16.1241 35.12 15.8991 35.165V42.1625C15.8991 42.2075 15.8316 42.2675 15.6966 42.3425C15.5616 42.4175 15.4041 42.485 15.2241 42.545C15.0591 42.605 14.9016 42.635 14.7516 42.635H14.5491V34.2425ZM2.64658 29.63V28.91L4.31158 29.63H4.04158V48.2825C4.04158 48.3275 3.92908 48.4175 3.70408 48.5525C3.49408 48.7025 3.21658 48.7775 2.87158 48.7775H2.64658V29.63ZM3.32158 29.63H8.09158V30.2825H3.32158V29.63ZM6.98908 29.63H6.74158L7.66408 28.7075L9.41908 30.4175C9.26908 30.5675 8.93158 30.65 8.40658 30.665C8.19658 31.115 7.92658 31.67 7.59658 32.33C7.26658 32.975 6.92158 33.62 6.56158 34.265C6.21658 34.91 5.89408 35.4575 5.59408 35.9075C6.28408 36.4925 6.83158 37.085 7.23658 37.685C7.65658 38.285 7.95658 38.885 8.13658 39.485C8.31658 40.085 8.40658 40.67 8.40658 41.24C8.42158 42.29 8.21908 43.07 7.79908 43.58C7.39408 44.075 6.68908 44.345 5.68408 44.39C5.68408 44.165 5.66158 43.9475 5.61658 43.7375C5.57158 43.5275 5.50408 43.3775 5.41408 43.2875C5.32408 43.1975 5.18158 43.13 4.98658 43.085C4.80658 43.025 4.60408 42.98 4.37908 42.95V42.59C4.58908 42.59 4.85158 42.59 5.16658 42.59C5.48158 42.59 5.71408 42.59 5.86408 42.59C6.07408 42.59 6.25408 42.5525 6.40408 42.4775C6.74908 42.2825 6.92158 41.765 6.92158 40.925C6.92158 40.13 6.77908 39.32 6.49408 38.495C6.22408 37.655 5.73658 36.815 5.03158 35.975C5.18158 35.585 5.34658 35.12 5.52658 34.58C5.70658 34.025 5.88658 33.4475 6.06658 32.8475C6.26158 32.2475 6.43408 31.67 6.58408 31.115C6.74908 30.545 6.88408 30.05 6.98908 29.63ZM9.77908 34.2425V33.59L11.2191 34.2425H15.2466V34.895H11.1291V42.725C11.1291 42.77 11.0766 42.83 10.9716 42.905C10.8666 42.98 10.7241 43.0475 10.5441 43.1075C10.3791 43.1675 10.1991 43.1975 10.0041 43.1975H9.77908V34.2425ZM35.6316 28.2575C36.4266 28.5425 37.0641 28.865 37.5441 29.225C38.0241 29.585 38.3766 29.945 38.6016 30.305C38.8266 30.665 38.9466 31.0025 38.9616 31.3175C38.9916 31.6175 38.9391 31.865 38.8041 32.06C38.6841 32.255 38.5116 32.375 38.2866 32.42C38.0766 32.45 37.8366 32.3675 37.5666 32.1725C37.5066 31.7375 37.3641 31.295 37.1391 30.845C36.9141 30.395 36.6441 29.96 36.3291 29.54C36.0141 29.105 35.6991 28.7375 35.3841 28.4375L35.6316 28.2575ZM43.2141 35.6825C43.1691 35.8325 43.0791 35.96 42.9441 36.065C42.8241 36.155 42.6291 36.2075 42.3591 36.2225C42.1041 37.2275 41.7666 38.36 41.3466 39.62C40.9416 40.88 40.4841 42.155 39.9741 43.445C39.4791 44.72 38.9541 45.92 38.3991 47.045H37.9041C38.1891 46.175 38.4591 45.23 38.7141 44.21C38.9841 43.19 39.2391 42.155 39.4791 41.105C39.7341 40.055 39.9591 39.02 40.1541 38C40.3641 36.98 40.5441 36.0275 40.6941 35.1425L43.2141 35.6825ZM33.7641 35.435C34.5291 36.47 35.1216 37.4525 35.5416 38.3825C35.9616 39.3125 36.2466 40.1675 36.3966 40.9475C36.5616 41.7275 36.6216 42.41 36.5766 42.995C36.5466 43.565 36.4416 44.0225 36.2616 44.3675C36.0966 44.6975 35.9091 44.885 35.6991 44.93C35.4891 44.96 35.2866 44.825 35.0916 44.525C35.0766 43.985 35.0391 43.3475 34.9791 42.6125C34.9341 41.8775 34.8516 41.105 34.7316 40.295C34.6116 39.47 34.4466 38.6525 34.2366 37.8425C34.0266 37.0325 33.7566 36.2825 33.4266 35.5925L33.7641 35.435ZM43.0341 45.2675C43.0341 45.2675 43.1016 45.32 43.2366 45.425C43.3716 45.53 43.5441 45.6725 43.7541 45.8525C43.9641 46.0175 44.1816 46.1975 44.4066 46.3925C44.6316 46.5725 44.8416 46.76 45.0366 46.955C44.9766 47.195 44.7741 47.315 44.4291 47.315H30.9966L30.8166 46.64H41.9541L43.0341 45.2675ZM42.6066 31.88C42.6066 31.88 42.6741 31.9325 42.8091 32.0375C42.9441 32.1425 43.1166 32.2775 43.3266 32.4425C43.5366 32.6075 43.7541 32.7875 43.9791 32.9825C44.2041 33.1625 44.4066 33.3425 44.5866 33.5225C44.5566 33.6425 44.4891 33.7325 44.3841 33.7925C44.2941 33.8525 44.1666 33.8825 44.0016 33.8825H32.7516L32.5716 33.23H41.5716L42.6066 31.88ZM23.8416 40.0025C24.3066 39.8675 24.9666 39.6425 25.8216 39.3275C26.6916 39.0125 27.6741 38.6375 28.7691 38.2025C29.8641 37.7675 30.9891 37.325 32.1441 36.875L32.2791 37.19C31.4391 37.67 30.4266 38.2625 29.2416 38.9675C28.0716 39.6725 26.7066 40.4375 25.1466 41.2625C25.0866 41.5625 24.9441 41.7575 24.7191 41.8475L23.8416 40.0025ZM29.8491 28.3925C29.8191 28.5425 29.7366 28.67 29.6016 28.775C29.4816 28.88 29.2866 28.9475 29.0166 28.9775V46.46C29.0166 46.865 28.9641 47.225 28.8591 47.54C28.7541 47.87 28.5291 48.1325 28.1841 48.3275C27.8391 48.5225 27.2991 48.6575 26.5641 48.7325C26.5191 48.4775 26.4516 48.2525 26.3616 48.0575C26.2866 47.8625 26.1666 47.705 26.0016 47.585C25.8216 47.435 25.5666 47.3075 25.2366 47.2025C24.9066 47.1125 24.4641 47.0375 23.9091 46.9775V46.595C23.9091 46.595 24.0366 46.61 24.2916 46.64C24.5616 46.655 24.8766 46.6775 25.2366 46.7075C25.6116 46.7225 25.9641 46.745 26.2941 46.775C26.6241 46.79 26.8491 46.7975 26.9691 46.7975C27.2091 46.7975 27.3666 46.76 27.4416 46.685C27.5316 46.61 27.5766 46.4825 27.5766 46.3025V28.145L29.8491 28.3925ZM30.7266 32.0375C30.7266 32.0375 30.8241 32.12 31.0191 32.285C31.2291 32.45 31.4616 32.6525 31.7166 32.8925C31.9866 33.1325 32.2266 33.365 32.4366 33.59C32.3916 33.83 32.2041 33.95 31.8741 33.95H24.1566L23.9766 33.2975H29.7816L30.7266 32.0375ZM46.7691 30.62H63.5991L64.8141 29.09C64.8141 29.09 64.8816 29.15 65.0166 29.27C65.1666 29.375 65.3616 29.525 65.6016 29.72C65.8416 29.9 66.0891 30.095 66.3441 30.305C66.5991 30.515 66.8391 30.7175 67.0641 30.9125C67.0041 31.1525 66.7941 31.2725 66.4341 31.2725H46.9716L46.7691 30.62ZM56.3541 30.8675H57.8616V46.3475C57.8616 46.7375 57.8016 47.0975 57.6816 47.4275C57.5616 47.7575 57.2991 48.0275 56.8941 48.2375C56.5041 48.4625 55.8966 48.6125 55.0716 48.6875C55.0566 48.4625 54.9966 48.245 54.8916 48.035C54.7866 47.84 54.6366 47.6825 54.4416 47.5625C54.2016 47.4125 53.8866 47.285 53.4966 47.18C53.1066 47.09 52.5666 47.0075 51.8766 46.9325V46.595C51.8766 46.595 51.9816 46.6025 52.1916 46.6175C52.4166 46.6325 52.6941 46.655 53.0241 46.685C53.3691 46.7 53.7141 46.7225 54.0591 46.7525C54.4191 46.7675 54.7416 46.7825 55.0266 46.7975C55.3266 46.8125 55.5441 46.82 55.6791 46.82C55.9341 46.82 56.1066 46.7825 56.1966 46.7075C56.3016 46.6175 56.3541 46.4675 56.3541 46.2575V30.8675ZM80.7184 33.05H87.2209V33.725H80.9209L80.7184 33.05ZM86.4784 33.05H86.2534L87.0634 32.15L88.7284 33.5225C88.6534 33.6125 88.5409 33.695 88.3909 33.77C88.2559 33.83 88.0759 33.875 87.8509 33.905C87.8359 35.63 87.8134 37.16 87.7834 38.495C87.7534 39.83 87.7159 40.985 87.6709 41.96C87.6259 42.935 87.5659 43.76 87.4909 44.435C87.4159 45.11 87.3184 45.6575 87.1984 46.0775C87.0934 46.4825 86.9584 46.79 86.7934 47C86.5534 47.33 86.2459 47.5625 85.8709 47.6975C85.5109 47.8475 85.1359 47.9225 84.7459 47.9225C84.7459 47.6975 84.7234 47.495 84.6784 47.315C84.6484 47.15 84.5659 47.0075 84.4309 46.8875C84.3259 46.7825 84.1309 46.6925 83.8459 46.6175C83.5759 46.5275 83.2984 46.4525 83.0134 46.3925V45.9875C83.3434 46.0175 83.7109 46.0475 84.1159 46.0775C84.5359 46.1075 84.8434 46.1225 85.0384 46.1225C85.2334 46.1225 85.3759 46.1075 85.4659 46.0775C85.5559 46.0475 85.6459 45.98 85.7359 45.875C85.8859 45.695 86.0059 45.3275 86.0959 44.7725C86.1859 44.2025 86.2534 43.4075 86.2984 42.3875C86.3584 41.3525 86.4034 40.07 86.4334 38.54C86.4634 36.995 86.4784 35.165 86.4784 33.05ZM82.9234 28.55L85.0609 28.775C85.0309 28.925 84.9559 29.06 84.8359 29.18C84.7309 29.285 84.5359 29.36 84.2509 29.405V34.8275C84.2509 36.0125 84.1909 37.2425 84.0709 38.5175C83.9509 39.7775 83.7259 41.0225 83.3959 42.2525C83.0809 43.4825 82.6084 44.645 81.9784 45.74C81.3634 46.835 80.5384 47.81 79.5034 48.665L79.1434 48.3725C79.9834 47.4725 80.6509 46.4825 81.1459 45.4025C81.6409 44.3225 82.0159 43.19 82.2709 42.005C82.5409 40.805 82.7134 39.5975 82.7884 38.3825C82.8784 37.1525 82.9234 35.96 82.9234 34.805V28.55ZM89.2009 31.34V30.62L90.6634 31.34H94.0384V31.9925H90.5509V47.675C90.5509 47.735 90.4984 47.8025 90.3934 47.8775C90.3034 47.9675 90.1759 48.0425 90.0109 48.1025C89.8459 48.1625 89.6584 48.1925 89.4484 48.1925H89.2009V31.34ZM93.3409 31.34H93.1834L93.9034 30.5525L95.4559 31.79C95.3209 31.955 95.0884 32.06 94.7584 32.105V46.82C94.7584 46.865 94.6909 46.925 94.5559 47C94.4209 47.09 94.2634 47.165 94.0834 47.225C93.9034 47.3 93.7234 47.3375 93.5434 47.3375H93.3409V31.34ZM89.8084 44.525H94.0384V45.1775H89.8084V44.525ZM75.6334 31.16V30.4625L77.0284 31.16H80.0659V31.8125H76.9384V45.245C76.9384 45.305 76.8859 45.3725 76.7809 45.4475C76.6909 45.5225 76.5634 45.5975 76.3984 45.6725C76.2484 45.7325 76.0759 45.7625 75.8809 45.7625H75.6334V31.16ZM79.2559 31.16H79.0534L79.8409 30.3275L81.4384 31.61C81.3784 31.67 81.2734 31.745 81.1234 31.835C80.9734 31.91 80.8009 31.9625 80.6059 31.9925V43.9625C80.6059 44.0075 80.5384 44.075 80.4034 44.165C80.2834 44.24 80.1334 44.3075 79.9534 44.3675C79.7884 44.4275 79.6234 44.4575 79.4584 44.4575H79.2559V31.16ZM76.2634 42.005H79.9759V42.6575H76.2634V42.005ZM114.783 32.375L115.503 31.61L117.056 32.8025C116.921 32.9975 116.658 33.1175 116.268 33.1625V41.06C116.268 41.105 116.201 41.165 116.066 41.24C115.946 41.315 115.803 41.3825 115.638 41.4425C115.473 41.5025 115.316 41.5325 115.166 41.5325H114.963V32.375H114.783ZM109.091 41.3075C109.091 41.3525 109.038 41.4125 108.933 41.4875C108.843 41.5475 108.716 41.6075 108.551 41.6675C108.401 41.7275 108.228 41.7575 108.033 41.7575H107.808V32.375V31.7225L109.203 32.375H115.413V33.0275H109.091V41.3075ZM112.758 32.375V47.4275H111.453V32.375H112.758ZM115.503 39.71V40.385H108.641V39.71H115.503ZM115.503 35.9975V36.6725H108.641V35.9975H115.503ZM104.928 29.585V29.0675L106.526 29.81H106.278V36.785C106.278 37.85 106.218 38.93 106.098 40.025C105.993 41.105 105.768 42.17 105.423 43.22C105.093 44.255 104.591 45.245 103.916 46.19C103.256 47.135 102.356 47.99 101.216 48.755L100.901 48.485C102.041 47.435 102.896 46.295 103.466 45.065C104.051 43.82 104.441 42.5075 104.636 41.1275C104.831 39.7325 104.928 38.2925 104.928 36.8075V29.81V29.585ZM115.998 28.46C115.998 28.46 116.066 28.5125 116.201 28.6175C116.336 28.7225 116.501 28.8575 116.696 29.0225C116.906 29.1875 117.123 29.3675 117.348 29.5625C117.573 29.7425 117.783 29.9225 117.978 30.1025C117.918 30.3425 117.708 30.4625 117.348 30.4625H105.558V29.81H114.941L115.998 28.46ZM115.413 42.3875C115.413 42.3875 115.511 42.4625 115.706 42.6125C115.901 42.7625 116.126 42.9425 116.381 43.1525C116.651 43.3625 116.898 43.5725 117.123 43.7825C117.078 44.0225 116.883 44.1425 116.538 44.1425H107.493L107.313 43.4675H114.491L115.413 42.3875ZM116.291 46.1C116.291 46.1 116.388 46.175 116.583 46.325C116.778 46.46 117.011 46.64 117.281 46.865C117.566 47.075 117.828 47.285 118.068 47.495C118.008 47.735 117.806 47.855 117.461 47.855H105.963L105.783 47.18H115.346L116.291 46.1ZM99.4609 44.5025C99.4609 44.5625 99.4084 44.6375 99.3034 44.7275C99.2134 44.8025 99.0859 44.87 98.9209 44.93C98.7709 44.99 98.5909 45.02 98.3809 45.02H98.1559V30.2375V29.54L99.5959 30.2375H102.971V30.9125H99.4609V44.5025ZM102.588 41.69V42.365H98.8534V41.69H102.588ZM101.711 30.2375L102.498 29.3825L104.231 30.71C104.156 30.8 104.028 30.89 103.848 30.98C103.683 31.055 103.488 31.115 103.263 31.16V43.5575C103.263 43.6025 103.196 43.67 103.061 43.76C102.941 43.835 102.798 43.91 102.633 43.985C102.468 44.06 102.303 44.0975 102.138 44.0975H101.936V30.2375H101.711ZM122.501 29.2025V28.6625L124.256 29.4275H123.963V34.715C123.963 35.765 123.926 36.89 123.851 38.09C123.791 39.29 123.633 40.5125 123.378 41.7575C123.123 43.0025 122.733 44.225 122.208 45.425C121.683 46.61 120.963 47.705 120.048 48.71L119.688 48.485C120.528 47.105 121.143 45.65 121.533 44.12C121.938 42.575 122.201 41.0075 122.321 39.4175C122.441 37.8275 122.501 36.2675 122.501 34.7375V29.4275V29.2025ZM136.946 29.4275L137.756 28.55L139.578 29.9225C139.503 30.0125 139.376 30.095 139.196 30.17C139.031 30.245 138.836 30.3125 138.611 30.3725V34.175C138.611 34.22 138.536 34.28 138.386 34.355C138.251 34.415 138.093 34.475 137.913 34.535C137.733 34.595 137.561 34.625 137.396 34.625H137.171V29.4275H136.946ZM138.116 33.14V33.7925H123.221V33.14H138.116ZM138.003 29.4275V30.1025H123.131V29.4275H138.003ZM125.133 39.98C125.853 39.98 126.828 39.9725 128.058 39.9575C129.288 39.9275 130.683 39.89 132.243 39.845C133.818 39.8 135.453 39.7475 137.148 39.6875L137.171 40.115C135.896 40.28 134.268 40.4825 132.288 40.7225C130.323 40.9475 128.148 41.1725 125.763 41.3975L125.133 39.98ZM132.288 36.4475C131.913 36.7775 131.463 37.1225 130.938 37.4825C130.428 37.8425 129.873 38.21 129.273 38.585C128.673 38.96 128.066 39.305 127.451 39.62C126.851 39.935 126.266 40.2125 125.696 40.4525V40.1825H126.438C126.378 40.6475 126.258 41.015 126.078 41.285C125.913 41.54 125.733 41.6975 125.538 41.7575L124.908 39.935C124.908 39.935 124.976 39.9275 125.111 39.9125C125.246 39.8825 125.351 39.8525 125.426 39.8225C126.011 39.5975 126.618 39.2675 127.248 38.8325C127.893 38.3825 128.478 37.925 129.003 37.46C129.543 36.995 129.963 36.605 130.263 36.29H132.288V36.4475ZM133.413 37.7075C134.523 37.9025 135.446 38.1575 136.181 38.4725C136.916 38.7875 137.493 39.1175 137.913 39.4625C138.348 39.8075 138.648 40.145 138.813 40.475C138.978 40.805 139.046 41.09 139.016 41.33C138.986 41.57 138.873 41.7425 138.678 41.8475C138.483 41.9375 138.236 41.9225 137.936 41.8025C137.666 41.3375 137.261 40.865 136.721 40.385C136.196 39.905 135.618 39.455 134.988 39.035C134.373 38.6 133.788 38.2475 133.233 37.9775L133.413 37.7075ZM138.521 45.8525C138.521 45.8525 138.588 45.905 138.723 46.01C138.858 46.1 139.023 46.235 139.218 46.415C139.428 46.58 139.646 46.76 139.871 46.955C140.096 47.15 140.298 47.3375 140.478 47.5175C140.418 47.7575 140.223 47.8775 139.893 47.8775H122.951L122.748 47.2025H137.463L138.521 45.8525ZM136.698 42.3875C136.698 42.3875 136.803 42.47 137.013 42.635C137.223 42.8 137.471 43.0025 137.756 43.2425C138.056 43.4825 138.326 43.7225 138.566 43.9625C138.506 44.2025 138.311 44.3225 137.981 44.3225H124.773L124.593 43.6475H135.663L136.698 42.3875ZM137.643 34.8275C137.643 34.8275 137.703 34.8725 137.823 34.9625C137.958 35.0525 138.131 35.1725 138.341 35.3225C138.551 35.4725 138.761 35.6375 138.971 35.8175C139.196 35.9825 139.406 36.1475 139.601 36.3125C139.541 36.5525 139.346 36.6725 139.016 36.6725H124.638L124.458 36.02H136.608L137.643 34.8275ZM132.783 41.33C132.768 41.465 132.708 41.585 132.603 41.69C132.498 41.78 132.311 41.8475 132.041 41.8925V47.5625H130.601V41.0825L132.783 41.33Z" fill="#1E5D32"/>
<line y1="0.5" x2="141" y2="0.5" stroke="#2A8447"/>
<line y1="52.5" x2="141" y2="52.5" stroke="#2A8447"/>
<path d="M31.0359 64.5664V64.7109C30.6427 64.513 30.3146 64.2812 30.0516 64.0156C29.6766 63.638 29.3875 63.1927 29.1844 62.6797C28.9813 62.1667 28.8797 61.6341 28.8797 61.082C28.8797 60.2747 29.0789 59.5391 29.4773 58.875C29.8758 58.2083 30.3953 57.7318 31.0359 57.4453V57.6094C30.7156 57.7865 30.4526 58.0286 30.2469 58.3359C30.0411 58.6432 29.8875 59.0326 29.7859 59.5039C29.6844 59.9753 29.6336 60.4674 29.6336 60.9805C29.6336 61.5378 29.6766 62.0443 29.7625 62.5C29.8302 62.8594 29.9122 63.1471 30.0086 63.3633C30.1049 63.582 30.2339 63.7917 30.3953 63.9922C30.5594 64.1927 30.7729 64.3841 31.0359 64.5664ZM32.4602 60.1602H34.9211V58.6445C34.9211 58.3737 34.9042 58.1953 34.8703 58.1094C34.8443 58.0443 34.7896 57.9883 34.7063 57.9414C34.5943 57.8789 34.4758 57.8477 34.3508 57.8477H34.1633V57.7031H36.4289V57.8477H36.2414C36.1164 57.8477 35.9979 57.8776 35.8859 57.9375C35.8026 57.9792 35.7453 58.043 35.7141 58.1289C35.6854 58.2122 35.6711 58.3841 35.6711 58.6445V62.0625C35.6711 62.3307 35.688 62.5078 35.7219 62.5938C35.7479 62.6589 35.8013 62.7148 35.882 62.7617C35.9966 62.8242 36.1164 62.8555 36.2414 62.8555H36.4289V63H34.1633V62.8555H34.3508C34.5669 62.8555 34.7245 62.7917 34.8234 62.6641C34.8885 62.5807 34.9211 62.3802 34.9211 62.0625V60.4492H32.4602V62.0625C32.4602 62.3307 32.4771 62.5078 32.5109 62.5938C32.537 62.6589 32.5917 62.7148 32.675 62.7617C32.787 62.8242 32.9055 62.8555 33.0305 62.8555H33.2219V63H30.9523V62.8555H31.1398C31.3586 62.8555 31.5174 62.7917 31.6164 62.6641C31.6789 62.5807 31.7102 62.3802 31.7102 62.0625V58.6445C31.7102 58.3737 31.6932 58.1953 31.6594 58.1094C31.6333 58.0443 31.5799 57.9883 31.4992 57.9414C31.3846 57.8789 31.2648 57.8477 31.1398 57.8477H30.9523V57.7031H33.2219V57.8477H33.0305C32.9055 57.8477 32.787 57.8776 32.675 57.9375C32.5943 57.9792 32.5383 58.043 32.507 58.1289C32.4758 58.2122 32.4602 58.3841 32.4602 58.6445V60.1602ZM39.857 61.2266H37.8063L37.4469 62.0625C37.3583 62.2682 37.3141 62.4219 37.3141 62.5234C37.3141 62.6042 37.3518 62.6758 37.4273 62.7383C37.5055 62.7982 37.6721 62.8372 37.9273 62.8555V63H36.2594V62.8555C36.4807 62.8164 36.624 62.7656 36.6891 62.7031C36.8219 62.5781 36.969 62.3242 37.1305 61.9414L38.9938 57.582H39.1305L40.9742 61.9883C41.1227 62.3424 41.2568 62.5729 41.3766 62.6797C41.499 62.7839 41.6682 62.8424 41.8844 62.8555V63H39.7945V62.8555C40.0055 62.8451 40.1474 62.8099 40.2203 62.75C40.2958 62.6901 40.3336 62.6172 40.3336 62.5312C40.3336 62.4167 40.2815 62.2357 40.1773 61.9883L39.857 61.2266ZM39.7477 60.9375L38.8492 58.7969L37.9273 60.9375H39.7477ZM46.1641 61.5352L46.293 61.5625L45.8398 63H41.7383V62.8555H41.9375C42.1615 62.8555 42.3216 62.7826 42.418 62.6367C42.4727 62.5534 42.5 62.3607 42.5 62.0586V58.6406C42.5 58.3099 42.4635 58.1029 42.3906 58.0195C42.2891 57.9049 42.138 57.8477 41.9375 57.8477H41.7383V57.7031H44.1367V57.8477C43.8555 57.8451 43.6576 57.8711 43.543 57.9258C43.431 57.9805 43.3542 58.0495 43.3125 58.1328C43.2708 58.2161 43.25 58.4154 43.25 58.7305V62.0586C43.25 62.2747 43.2708 62.4232 43.3125 62.5039C43.3438 62.5586 43.3919 62.599 43.457 62.625C43.5221 62.651 43.7253 62.6641 44.0664 62.6641H44.4531C44.8594 62.6641 45.1445 62.6341 45.3086 62.5742C45.4727 62.5143 45.6224 62.4089 45.7578 62.2578C45.8932 62.1042 46.0286 61.8633 46.1641 61.5352ZM49.7289 61.2266H47.6781L47.3188 62.0625C47.2302 62.2682 47.1859 62.4219 47.1859 62.5234C47.1859 62.6042 47.2237 62.6758 47.2992 62.7383C47.3773 62.7982 47.544 62.8372 47.7992 62.8555V63H46.1313V62.8555C46.3526 62.8164 46.4958 62.7656 46.5609 62.7031C46.6938 62.5781 46.8409 62.3242 47.0023 61.9414L48.8656 57.582H49.0023L50.8461 61.9883C50.9945 62.3424 51.1286 62.5729 51.2484 62.6797C51.3708 62.7839 51.5401 62.8424 51.7563 62.8555V63H49.6664V62.8555C49.8773 62.8451 50.0193 62.8099 50.0922 62.75C50.1677 62.6901 50.2055 62.6172 50.2055 62.5312C50.2055 62.4167 50.1534 62.2357 50.0492 61.9883L49.7289 61.2266ZM49.6195 60.9375L48.7211 58.7969L47.7992 60.9375H49.6195ZM56.0359 61.5352L56.1648 61.5625L55.7117 63H51.6102V62.8555H51.8094C52.0333 62.8555 52.1935 62.7826 52.2898 62.6367C52.3445 62.5534 52.3719 62.3607 52.3719 62.0586V58.6406C52.3719 58.3099 52.3354 58.1029 52.2625 58.0195C52.1609 57.9049 52.0099 57.8477 51.8094 57.8477H51.6102V57.7031H54.0086V57.8477C53.7273 57.8451 53.5294 57.8711 53.4148 57.9258C53.3029 57.9805 53.226 58.0495 53.1844 58.1328C53.1427 58.2161 53.1219 58.4154 53.1219 58.7305V62.0586C53.1219 62.2747 53.1427 62.4232 53.1844 62.5039C53.2156 62.5586 53.2638 62.599 53.3289 62.625C53.394 62.651 53.5971 62.6641 53.9383 62.6641H54.325C54.7313 62.6641 55.0164 62.6341 55.1805 62.5742C55.3445 62.5143 55.4943 62.4089 55.6297 62.2578C55.7651 62.1042 55.9005 61.8633 56.0359 61.5352ZM59.1773 57.9922V60.0742H60.1422C60.3635 60.0742 60.525 60.026 60.6266 59.9297C60.7307 59.8307 60.7997 59.6367 60.8336 59.3477H60.9781V61.1406H60.8336C60.831 60.9349 60.8036 60.7839 60.7516 60.6875C60.7021 60.5911 60.6318 60.5195 60.5406 60.4727C60.4521 60.4232 60.3193 60.3984 60.1422 60.3984H59.1773V62.0625C59.1773 62.3307 59.1943 62.5078 59.2281 62.5938C59.2542 62.6589 59.3089 62.7148 59.3922 62.7617C59.5068 62.8242 59.6266 62.8555 59.7516 62.8555H59.943V63H57.6695V62.8555H57.857C58.0758 62.8555 58.2346 62.7917 58.3336 62.6641C58.3961 62.5807 58.4273 62.3802 58.4273 62.0625V58.6406C58.4273 58.3724 58.4104 58.1953 58.3766 58.1094C58.3505 58.0443 58.2971 57.9883 58.2164 57.9414C58.1044 57.8789 57.9846 57.8477 57.857 57.8477H57.6695V57.7031H61.6109L61.6617 58.8672H61.525C61.4573 58.6198 61.3779 58.4388 61.2867 58.3242C61.1982 58.207 61.0875 58.1224 60.9547 58.0703C60.8245 58.0182 60.6214 57.9922 60.3453 57.9922H59.1773ZM64.5195 57.582C65.207 57.582 65.8021 57.8438 66.3047 58.3672C66.8099 58.888 67.0625 59.5391 67.0625 60.3203C67.0625 61.125 66.8086 61.793 66.3008 62.3242C65.793 62.8555 65.1784 63.1211 64.457 63.1211C63.7279 63.1211 63.1146 62.862 62.6172 62.3438C62.1224 61.8255 61.875 61.1549 61.875 60.332C61.875 59.4909 62.1615 58.8047 62.7344 58.2734C63.2318 57.8125 63.8268 57.582 64.5195 57.582ZM64.4453 57.8672C63.9714 57.8672 63.5911 58.043 63.3047 58.3945C62.9479 58.832 62.7695 59.4727 62.7695 60.3164C62.7695 61.181 62.9544 61.8464 63.3242 62.3125C63.6081 62.6667 63.9831 62.8438 64.4492 62.8438C64.9466 62.8438 65.3568 62.6497 65.6797 62.2617C66.0052 61.8737 66.168 61.2617 66.168 60.4258C66.168 59.5195 65.9896 58.8438 65.6328 58.3984C65.3464 58.0443 64.9505 57.8672 64.4453 57.8672ZM69.9008 57.582C70.5883 57.582 71.1833 57.8438 71.6859 58.3672C72.1911 58.888 72.4438 59.5391 72.4438 60.3203C72.4438 61.125 72.1898 61.793 71.682 62.3242C71.1742 62.8555 70.5596 63.1211 69.8383 63.1211C69.1091 63.1211 68.4958 62.862 67.9984 62.3438C67.5036 61.8255 67.2563 61.1549 67.2563 60.332C67.2563 59.4909 67.5427 58.8047 68.1156 58.2734C68.613 57.8125 69.2081 57.582 69.9008 57.582ZM69.8266 57.8672C69.3526 57.8672 68.9724 58.043 68.6859 58.3945C68.3292 58.832 68.1508 59.4727 68.1508 60.3164C68.1508 61.181 68.3357 61.8464 68.7055 62.3125C68.9893 62.6667 69.3643 62.8438 69.8305 62.8438C70.3279 62.8438 70.738 62.6497 71.0609 62.2617C71.3865 61.8737 71.5492 61.2617 71.5492 60.4258C71.5492 59.5195 71.3708 58.8438 71.0141 58.3984C70.7276 58.0443 70.3318 57.8672 69.8266 57.8672ZM72.493 63V62.8555H72.6922C72.9161 62.8555 73.075 62.7839 73.1688 62.6406C73.226 62.5547 73.2547 62.362 73.2547 62.0625V58.6406C73.2547 58.3099 73.2182 58.1029 73.1453 58.0195C73.0438 57.9049 72.8927 57.8477 72.6922 57.8477H72.493V57.7031H74.6492C75.4409 57.7031 76.0424 57.793 76.4539 57.9727C76.868 58.1523 77.2 58.4518 77.45 58.8711C77.7026 59.2904 77.8289 59.7747 77.8289 60.3242C77.8289 61.0612 77.6049 61.6771 77.157 62.1719C76.6544 62.724 75.8888 63 74.8602 63H72.493ZM74.0047 62.6172C74.3354 62.6901 74.6128 62.7266 74.8367 62.7266C75.4409 62.7266 75.9422 62.5143 76.3406 62.0898C76.7391 61.6654 76.9383 61.0898 76.9383 60.3633C76.9383 59.6315 76.7391 59.0547 76.3406 58.6328C75.9422 58.2109 75.4305 58 74.8055 58C74.5711 58 74.3042 58.0378 74.0047 58.1133V62.6172ZM77.9172 57.6094V57.4453C78.313 57.6406 78.6424 57.8711 78.9055 58.1367C79.2779 58.5169 79.5656 58.9635 79.7687 59.4766C79.9719 59.987 80.0734 60.5195 80.0734 61.0742C80.0734 61.8815 79.8742 62.6172 79.4758 63.2812C79.0799 63.9479 78.5604 64.4245 77.9172 64.7109V64.5664C78.2375 64.3867 78.5005 64.1432 78.7062 63.8359C78.9146 63.5312 79.0682 63.1432 79.1672 62.6719C79.2687 62.1979 79.3195 61.7044 79.3195 61.1914C79.3195 60.6367 79.2766 60.1302 79.1906 59.6719C79.1255 59.3125 79.0435 59.0247 78.9445 58.8086C78.8482 58.5924 78.7193 58.3841 78.5578 58.1836C78.3964 57.9831 78.1828 57.7917 77.9172 57.6094ZM84.4004 57.152H88.0804L88.4324 56.72C88.4324 56.72 88.4698 56.7493 88.5444 56.808C88.6191 56.8667 88.7044 56.9387 88.8004 57.024C88.9018 57.104 88.9951 57.184 89.0804 57.264C89.0591 57.3493 88.9898 57.392 88.8724 57.392H84.4644L84.4004 57.152ZM84.1524 58.984H88.2404L88.6084 58.536C88.6084 58.536 88.6298 58.5547 88.6724 58.592C88.7151 58.6293 88.7711 58.6747 88.8404 58.728C88.9098 58.7813 88.9818 58.84 89.0564 58.904C89.1364 58.968 89.2058 59.0293 89.2644 59.088C89.2484 59.1733 89.1791 59.216 89.0564 59.216H84.2164L84.1524 58.984ZM84.5844 58.032H87.9204L88.2724 57.6C88.2724 57.6 88.3071 57.6293 88.3764 57.688C88.4511 57.7467 88.5364 57.8187 88.6324 57.904C88.7338 57.9893 88.8244 58.0693 88.9044 58.144C88.8884 58.2293 88.8218 58.272 88.7044 58.272H84.6404L84.5844 58.032ZM86.3124 56.352L87.1284 56.44C87.1231 56.4933 87.0964 56.5413 87.0484 56.584C87.0004 56.6213 86.9284 56.648 86.8324 56.664V59.12H86.3124V56.352ZM85.1604 60.792H88.2084V61.024H85.1604V60.792ZM85.1764 61.792H88.1924V62.024H85.1764V61.792ZM82.5364 56.392C82.8298 56.4347 83.0671 56.4987 83.2484 56.584C83.4351 56.6693 83.5738 56.7653 83.6644 56.872C83.7604 56.9733 83.8191 57.0747 83.8404 57.176C83.8618 57.272 83.8538 57.3547 83.8164 57.424C83.7791 57.4933 83.7204 57.5387 83.6404 57.56C83.5658 57.5813 83.4804 57.5653 83.3844 57.512C83.3418 57.3893 83.2698 57.264 83.1684 57.136C83.0671 57.0027 82.9551 56.8773 82.8324 56.76C82.7098 56.6427 82.5898 56.544 82.4724 56.464L82.5364 56.392ZM81.9764 58.208C82.2591 58.2453 82.4884 58.304 82.6644 58.384C82.8458 58.4587 82.9791 58.5467 83.0644 58.648C83.1551 58.744 83.2111 58.84 83.2324 58.936C83.2538 59.0267 83.2458 59.1067 83.2084 59.176C83.1711 59.24 83.1151 59.28 83.0404 59.296C82.9658 59.312 82.8804 59.296 82.7844 59.248C82.7418 59.1307 82.6724 59.0107 82.5764 58.888C82.4858 58.7653 82.3791 58.6533 82.2564 58.552C82.1391 58.4453 82.0218 58.3573 81.9044 58.288L81.9764 58.208ZM82.4644 61.384C82.5124 61.384 82.5471 61.376 82.5684 61.36C82.5951 61.344 82.6271 61.296 82.6644 61.216C82.6964 61.1573 82.7231 61.1013 82.7444 61.048C82.7711 60.9947 82.8084 60.912 82.8564 60.8C82.9098 60.6827 82.9844 60.512 83.0804 60.288C83.1764 60.0587 83.3071 59.7467 83.4724 59.352C83.6378 58.952 83.8538 58.44 84.1204 57.816L84.2724 57.856C84.2084 58.0533 84.1338 58.2747 84.0484 58.52C83.9631 58.7653 83.8778 59.0187 83.7924 59.28C83.7071 59.536 83.6244 59.7813 83.5444 60.016C83.4698 60.2507 83.4031 60.456 83.3444 60.632C83.2858 60.8027 83.2458 60.928 83.2244 61.008C83.1924 61.1307 83.1631 61.2533 83.1364 61.376C83.1151 61.4933 83.1071 61.6 83.1124 61.696C83.1124 61.7867 83.1231 61.88 83.1444 61.976C83.1711 62.0667 83.1978 62.1653 83.2244 62.272C83.2564 62.3787 83.2804 62.4987 83.2964 62.632C83.3178 62.76 83.3258 62.9067 83.3204 63.072C83.3151 63.2373 83.2724 63.368 83.1924 63.464C83.1124 63.5653 83.0058 63.616 82.8724 63.616C82.7978 63.616 82.7364 63.5813 82.6884 63.512C82.6458 63.4427 82.6218 63.3467 82.6164 63.224C82.6538 62.952 82.6724 62.7067 82.6724 62.488C82.6778 62.264 82.6644 62.08 82.6324 61.936C82.6058 61.792 82.5631 61.7013 82.5044 61.664C82.4511 61.6267 82.3951 61.6027 82.3364 61.592C82.2778 61.576 82.2031 61.5653 82.1124 61.56V61.384C82.1124 61.384 82.1364 61.384 82.1844 61.384C82.2324 61.384 82.2831 61.384 82.3364 61.384C82.3951 61.384 82.4378 61.384 82.4644 61.384ZM87.9364 59.848H87.8564L88.1204 59.52L88.7924 60.024C88.7711 60.056 88.7284 60.088 88.6644 60.12C88.6004 60.152 88.5284 60.1733 88.4484 60.184V62.896C88.4484 63.0293 88.4298 63.144 88.3924 63.24C88.3551 63.3413 88.2751 63.424 88.1524 63.488C88.0298 63.552 87.8404 63.6 87.5844 63.632C87.5738 63.552 87.5551 63.48 87.5284 63.416C87.5018 63.352 87.4564 63.2987 87.3924 63.256C87.3284 63.2133 87.2378 63.176 87.1204 63.144C87.0031 63.112 86.8458 63.0853 86.6484 63.064V62.936C86.6484 62.936 86.6938 62.9413 86.7844 62.952C86.8804 62.9573 86.9924 62.9627 87.1204 62.968C87.2538 62.9733 87.3791 62.9813 87.4964 62.992C87.6138 62.9973 87.6938 63 87.7364 63C87.8164 63 87.8698 62.9867 87.8964 62.96C87.9231 62.9333 87.9364 62.8907 87.9364 62.832V59.848ZM84.8644 59.848V59.6L85.4084 59.848H88.2244V60.072H85.3604V63.44C85.3604 63.456 85.3391 63.4773 85.2964 63.504C85.2591 63.536 85.2084 63.5627 85.1444 63.584C85.0858 63.6107 85.0191 63.624 84.9444 63.624H84.8644V59.848ZM93.8084 56.384C93.7978 56.4427 93.7711 56.4933 93.7284 56.536C93.6858 56.5733 93.6111 56.6 93.5044 56.616V58.296C93.5044 58.296 93.4644 58.296 93.3844 58.296C93.3098 58.296 93.2191 58.296 93.1124 58.296H92.9844V56.296L93.8084 56.384ZM91.0564 57.888L91.6644 58.16H94.8884L95.1684 57.792L95.8804 58.32C95.8538 58.3573 95.8111 58.3867 95.7524 58.408C95.6938 58.4293 95.6164 58.448 95.5204 58.464V61.888H94.9764V58.392H91.5764V61.888H91.0564V58.16V57.888ZM95.2164 60.84V61.072H91.3284V60.84H95.2164ZM95.2164 59.96V60.2H91.3284V59.96H95.2164ZM95.2164 59.064V59.296H91.3284V59.064H95.2164ZM95.8644 56.712C95.8644 56.712 95.8884 56.7307 95.9364 56.768C95.9844 56.8053 96.0458 56.8533 96.1204 56.912C96.1951 56.9707 96.2724 57.0347 96.3524 57.104C96.4378 57.1733 96.5151 57.24 96.5844 57.304C96.5684 57.3893 96.4964 57.432 96.3684 57.432H90.0324L89.9684 57.192H95.4804L95.8644 56.712ZM92.8644 62.56C92.8378 62.5973 92.7924 62.6213 92.7284 62.632C92.6644 62.6427 92.5818 62.6373 92.4804 62.616C92.2618 62.744 91.9978 62.8773 91.6884 63.016C91.3791 63.1547 91.0458 63.2827 90.6884 63.4C90.3364 63.5227 89.9871 63.6213 89.6404 63.696L89.5844 63.576C89.8991 63.464 90.2218 63.3227 90.5524 63.152C90.8831 62.9813 91.1871 62.8027 91.4644 62.616C91.7471 62.4293 91.9738 62.2587 92.1444 62.104L92.8644 62.56ZM93.8804 62.248C94.4084 62.312 94.8484 62.392 95.2004 62.488C95.5578 62.5787 95.8404 62.6747 96.0484 62.776C96.2564 62.8773 96.4058 62.9787 96.4964 63.08C96.5924 63.1813 96.6431 63.272 96.6484 63.352C96.6538 63.432 96.6271 63.496 96.5684 63.544C96.5151 63.5973 96.4431 63.624 96.3524 63.624C96.2671 63.624 96.1818 63.592 96.0964 63.528C95.8884 63.3253 95.5951 63.1253 95.2164 62.928C94.8431 62.7307 94.3844 62.5493 93.8404 62.384L93.8804 62.248ZM96.1924 61.288C96.1924 61.288 96.2164 61.3093 96.2644 61.352C96.3124 61.3893 96.3711 61.44 96.4404 61.504C96.5151 61.5627 96.5924 61.6267 96.6724 61.696C96.7578 61.7653 96.8351 61.832 96.9044 61.896C96.8831 61.9813 96.8111 62.024 96.6884 62.024H89.7124L89.6484 61.792H95.8004L96.1924 61.288ZM101.104 56.48C101.259 56.7253 101.464 56.9573 101.72 57.176C101.976 57.3947 102.259 57.5947 102.568 57.776C102.883 57.9573 103.206 58.1173 103.536 58.256C103.872 58.3893 104.198 58.4987 104.512 58.584L104.496 58.68C104.374 58.7013 104.267 58.7467 104.176 58.816C104.091 58.88 104.038 58.9627 104.016 59.064C103.6 58.9093 103.198 58.7093 102.808 58.464C102.424 58.2133 102.072 57.9307 101.752 57.616C101.438 57.296 101.174 56.9547 100.96 56.592L101.104 56.48ZM101.16 56.568C100.883 56.8987 100.547 57.2373 100.152 57.584C99.7631 57.9253 99.3258 58.2453 98.8404 58.544C98.3604 58.8427 97.8404 59.0907 97.2804 59.288L97.2004 59.176C97.7124 58.9307 98.1898 58.6427 98.6324 58.312C99.0804 57.976 99.4778 57.624 99.8244 57.256C100.176 56.888 100.454 56.5333 100.656 56.192L101.512 56.432C101.502 56.4747 101.467 56.5093 101.408 56.536C101.355 56.5573 101.272 56.568 101.16 56.568ZM100.016 61.496C100.694 61.6613 101.262 61.8267 101.72 61.992C102.184 62.1573 102.558 62.3173 102.84 62.472C103.123 62.6213 103.334 62.7627 103.472 62.896C103.616 63.0293 103.702 63.144 103.728 63.24C103.76 63.336 103.755 63.4107 103.712 63.464C103.67 63.5173 103.603 63.544 103.512 63.544C103.427 63.544 103.336 63.5093 103.24 63.44C103.027 63.2533 102.758 63.0587 102.432 62.856C102.112 62.648 101.744 62.44 101.328 62.232C100.918 62.024 100.464 61.8267 99.9684 61.64L100.016 61.496ZM101.528 57.696C101.528 57.696 101.563 57.7253 101.632 57.784C101.707 57.8373 101.792 57.9067 101.888 57.992C101.984 58.072 102.07 58.1493 102.144 58.224C102.123 58.3093 102.056 58.352 101.944 58.352H99.6964L99.6324 58.12H101.208L101.528 57.696ZM102.648 58.976V59.216H98.9684V58.976H102.648ZM99.1764 59.656H98.6644V59.344V58.744L98.6804 58.728L99.2724 58.976H99.1764V59.656ZM98.5524 63.056C98.6858 63.0187 98.8698 62.9653 99.1044 62.896C99.3391 62.8213 99.6058 62.736 99.9044 62.64C100.208 62.5387 100.518 62.4347 100.832 62.328L100.872 62.44C100.718 62.52 100.526 62.624 100.296 62.752C100.072 62.8747 99.8244 63.008 99.5524 63.152C99.2804 63.296 99.0004 63.44 98.7124 63.584L98.5524 63.056ZM99.0564 59.168L99.1764 59.24V63.048L98.6564 63.272L98.8004 63.056C98.8804 63.216 98.8964 63.3493 98.8484 63.456C98.8058 63.568 98.7578 63.6427 98.7044 63.68L98.3204 63.176C98.4698 63.0747 98.5631 63.0027 98.6004 62.96C98.6431 62.912 98.6644 62.8533 98.6644 62.784V59.168H99.0564ZM103.832 61.584C103.8 61.6213 103.763 61.6453 103.72 61.656C103.683 61.6613 103.622 61.6533 103.536 61.632C103.408 61.712 103.254 61.7973 103.072 61.888C102.896 61.9733 102.71 62.0587 102.512 62.144C102.315 62.2293 102.12 62.304 101.928 62.368L101.84 62.264C102 62.1627 102.163 62.0453 102.328 61.912C102.494 61.7733 102.648 61.6373 102.792 61.504C102.942 61.3653 103.064 61.2427 103.16 61.136L103.832 61.584ZM102.328 58.976L102.608 58.68L103.216 59.144C103.195 59.1707 103.158 59.1973 103.104 59.224C103.051 59.2453 102.992 59.2613 102.928 59.272V61.328C102.928 61.344 102.902 61.368 102.848 61.4C102.8 61.432 102.742 61.4613 102.672 61.488C102.608 61.5093 102.544 61.52 102.48 61.52H102.4V58.976H102.328ZM102.656 60.992V61.224H98.9764V60.992H102.656ZM102.648 59.968V60.208H98.9764V59.968H102.648ZM106.488 56.768V56.512L107.048 56.768H110.144V57H107.008V59.552C107.008 59.5627 106.987 59.584 106.944 59.616C106.907 59.6427 106.854 59.6667 106.784 59.688C106.72 59.7093 106.651 59.72 106.576 59.72H106.488V56.768ZM109.904 56.768H109.832L110.128 56.44L110.776 56.936C110.75 56.968 110.704 57 110.64 57.032C110.582 57.0587 110.512 57.08 110.432 57.096V59.512C110.432 59.5227 110.406 59.544 110.352 59.576C110.304 59.6027 110.246 59.6267 110.176 59.648C110.112 59.6693 110.048 59.68 109.984 59.68H109.904V56.768ZM106.736 58.872H110.184V59.104H106.736V58.872ZM105.208 60.28V60.032L105.752 60.28H107.712V60.52H105.712V63.4C105.712 63.416 105.691 63.4373 105.648 63.464C105.611 63.496 105.56 63.5227 105.496 63.544C105.432 63.5653 105.363 63.576 105.288 63.576H105.208V60.28ZM107.408 60.28H107.328L107.624 59.968L108.264 60.456C108.243 60.488 108.2 60.52 108.136 60.552C108.078 60.5787 108.008 60.6 107.928 60.616V63.248C107.928 63.264 107.902 63.2853 107.848 63.312C107.8 63.344 107.744 63.3707 107.68 63.392C107.616 63.4187 107.552 63.432 107.488 63.432H107.408V60.28ZM105.416 62.64H107.688V62.864H105.416V62.64ZM108.936 60.28V60.032L109.488 60.28H111.544V60.52H109.448V63.424C109.448 63.44 109.427 63.4613 109.384 63.488C109.342 63.52 109.288 63.5467 109.224 63.568C109.16 63.5893 109.091 63.6 109.016 63.6H108.936V60.28ZM111.2 60.28H111.12L111.416 59.968L112.064 60.456C112.038 60.488 111.992 60.52 111.928 60.552C111.87 60.5787 111.8 60.6 111.72 60.616V63.32C111.72 63.336 111.694 63.3573 111.64 63.384C111.592 63.4107 111.534 63.4347 111.464 63.456C111.4 63.4773 111.339 63.488 111.28 63.488H111.2V60.28ZM109.104 62.64H111.448V62.864H109.104V62.64Z" fill="#1E5D32"/>
</svg>
